<?xml version="1.0" ?><svg id="Icons" viewBox="0 0 24 24" xmlns="http://www.w3.org/2000/svg" xmlns:xlink="http://www.w3.org/1999/xlink"><defs><style>.cls-1{fill:url(#linear-gradient);}.cls-2{fill:url(#linear-gradient-2);}.cls-3{fill:url(#linear-gradient-3);}</style><linearGradient gradientUnits="userSpaceOnUse" id="linear-gradient" x1="12" x2="12" y1="1.043" y2="22.448"><stop offset="0" stop-color="#5d5c66"/><stop offset="1" stop-color="#48474f"/></linearGradient><linearGradient gradientUnits="userSpaceOnUse" id="linear-gradient-2" x1="12" x2="12" y1="1.043" y2="22.448"><stop offset="0" stop-color="#a6f9ff"/><stop offset="1" stop-color="#3ed0f7"/></linearGradient><linearGradient id="linear-gradient-3" x1="12" x2="12" xlink:href="#linear-gradient" y1="2.234" y2="6.267"/></defs><path class="cls-1" d="M20,18v2a3,3,0,0,1-3,3H7a3,3,0,0,1-3-3V18Z"/><path class="cls-2" d="M20,4V18H4V4A3,3,0,0,1,7,1H17A3,3,0,0,1,20,4Z"/><path class="cls-3" d="M13,5H11a1,1,0,0,1,0-2h2a1,1,0,0,1,0,2Z"/></svg>