<?xml version="1.0" encoding="iso-8859-1"?>
<!-- Uploaded to: SVG Repo, www.svgrepo.com, Generator: SVG Repo Mixer Tools -->
<svg fill="#000000" height="800px" width="800px" version="1.1" id="Layer_1" xmlns="http://www.w3.org/2000/svg" xmlns:xlink="http://www.w3.org/1999/xlink" 
	 viewBox="0 0 512 512" xml:space="preserve">
<g transform="translate(1 1)">
	<g>
		<g>
			<path d="M485.4,161.133h-68.267c-11.491,0-20.833,6.963-24.224,17.067h-18.443v-25.6h68.267c18.773,0,34.133-15.36,34.133-34.133
				V33.133C476.867,14.36,461.507-1,442.733-1h-409.6C14.36-1-1,14.36-1,33.133v443.733C-1,495.64,14.36,511,33.133,511h409.6
				c18.773,0,34.133-15.36,34.133-34.133c0-18.773-15.36-34.133-34.133-34.133h-94.32c7.597-4.796,14.567-10.487,20.761-16.932
				c1.601-0.013,3.143-0.135,4.439-0.135c1.707,0,4.267,0,5.973,0c16.213,0,30.72-1.707,43.52-20.48
				c12.8-17.067,11.093-29.867,7.68-37.547c-4.975-9.95-15.885-16.332-30.727-18.193c0.001-0.194,0.007-0.387,0.007-0.581
				c0-5.12-3.413-8.533-8.533-8.533h-204.8c-5.12,0-8.533,3.413-8.533,8.533c0,39.609,20.574,74.248,51.654,93.867h-60.187
				c-9.387,0-17.067-7.68-17.067-17.067v-256c0-9.387,7.68-17.067,17.067-17.067H203.8v42.667c0,14.507,11.093,25.6,25.6,25.6H255
				v8.533c0,5.12,3.413,8.533,8.533,8.533s8.533-3.413,8.533-8.533v-8.533H306.2v8.533c0,5.12,3.413,8.533,8.533,8.533
				s8.533-3.413,8.533-8.533v-8.533h25.6c14.507,0,25.6-11.093,25.6-25.6h18.443c3.391,10.103,12.734,17.067,24.224,17.067H485.4
				c14.507,0,25.6-11.093,25.6-25.6S499.907,161.133,485.4,161.133z M416.28,375.32c3.413,5.973-2.56,14.507-5.973,19.627
				c-8.393,10.911-15.97,13.561-27.584,13.645c8.075-12.66,13.649-27.083,16.036-42.582
				C407.912,367.716,413.757,370.274,416.28,375.32z M195.267,357.4H382.06c-1.847,20.147-9.49,38.615-22.953,53.76
				c-0.398,0.398-0.695,0.845-0.929,1.325c-17.085,18.585-41.471,30.248-69.044,30.248
				C239.64,442.733,199.533,405.187,195.267,357.4z M169.667,135.533c-18.773,0-34.133,15.36-34.133,34.133v256
				c0,18.773,15.36,34.133,34.133,34.133h273.067c9.387,0,17.067,7.68,17.067,17.067s-7.68,17.067-17.067,17.067h-409.6
				c-9.387,0-17.067-7.68-17.067-17.067V459.8h42.667c5.12,0,8.533-3.413,8.533-8.533c0-5.12-3.413-8.533-8.533-8.533H16.067
				v-17.067h42.667c5.12,0,8.533-3.413,8.533-8.533s-3.413-8.533-8.533-8.533H16.067v-17.067h42.667c5.12,0,8.533-3.413,8.533-8.533
				s-3.413-8.533-8.533-8.533H16.067V357.4h42.667c5.12,0,8.533-3.413,8.533-8.533s-3.413-8.533-8.533-8.533H16.067v-307.2
				c0-9.387,7.68-17.067,17.067-17.067h409.6c9.387,0,17.067,7.68,17.067,17.067v85.333c0,9.387-7.68,17.067-17.067,17.067h-68.267
				H203.8H169.667z M357.4,195.267c0,5.12-3.413,8.533-8.533,8.533h-34.133h-51.2H229.4c-5.12,0-8.533-3.413-8.533-8.533V152.6
				H357.4V195.267z M485.4,195.267h-68.267c-5.12,0-8.533-3.413-8.533-8.533s3.413-8.533,8.533-8.533H485.4
				c5.12,0,8.533,3.413,8.533,8.533S490.52,195.267,485.4,195.267z"/>
			<path d="M272.067,263.533c0-5.12-3.413-8.533-8.533-8.533S255,258.413,255,263.533v8.533c0,5.12,3.413,8.533,8.533,8.533
				s8.533-3.413,8.533-8.533V263.533z"/>
			<path d="M263.533,297.667c-5.12,0-8.533,3.413-8.533,8.533v8.533c0,5.12,3.413,8.533,8.533,8.533s8.533-3.413,8.533-8.533V306.2
				C272.067,301.08,268.653,297.667,263.533,297.667z"/>
			<path d="M323.267,263.533c0-5.12-3.413-8.533-8.533-8.533s-8.533,3.413-8.533,8.533v8.533c0,5.12,3.413,8.533,8.533,8.533
				s8.533-3.413,8.533-8.533V263.533z"/>
			<path d="M314.733,297.667c-5.12,0-8.533,3.413-8.533,8.533v8.533c0,5.12,3.413,8.533,8.533,8.533s8.533-3.413,8.533-8.533V306.2
				C323.267,301.08,319.853,297.667,314.733,297.667z"/>
			<path d="M75.8,33.133c-23.893,0-42.667,18.773-42.667,42.667c0,23.893,18.773,42.667,42.667,42.667
				c23.893,0,42.667-18.773,42.667-42.667C118.467,51.907,99.693,33.133,75.8,33.133z M75.8,101.4c-14.507,0-25.6-11.093-25.6-25.6
				s11.093-25.6,25.6-25.6s25.6,11.093,25.6,25.6S90.307,101.4,75.8,101.4z"/>
			<path d="M178.2,33.133c-23.893,0-42.667,18.773-42.667,42.667c0,23.893,18.773,42.667,42.667,42.667s42.667-18.773,42.667-42.667
				C220.867,51.907,202.093,33.133,178.2,33.133z M178.2,101.4c-14.507,0-25.6-11.093-25.6-25.6s11.093-25.6,25.6-25.6
				s25.6,11.093,25.6,25.6S192.707,101.4,178.2,101.4z"/>
		</g>
	</g>
</g>
</svg>