<svg width="248" height="192" viewBox="0 0 248 192" fill="none" xmlns="http://www.w3.org/2000/svg">
<g clip-path="url(#clip0_1_21)">
<path fill-rule="evenodd" clip-rule="evenodd" d="M16.44 38.6V98.28L0 117.8L16.44 131.8V192L145.2 168.96L205.32 191.2V158.16L231.32 153.4V93.64L248 73.92L231.32 59.8V0L16.44 38.68V38.6ZM25.12 127L12.12 116L25.12 100.68V45.88L222.6 10.4V64.68L235.64 75.76L222.6 91.16V146L196.6 150.72V178.48L146.12 159.76L25.12 181.44V126.92V127ZM196.88 32.64V38.64C196.88 39.84 196.68 40.96 196.08 41.92L188.16 55.52L180.2 44.56C179.64 43.76 179.52 42.64 179.52 41.72V35.76L170.92 37.32V43.72C170.92 45.4 171.2 47.12 172.2 48.52L183.8 64.56V79.24L192.4 77.68V63L204 43.08C204.92 41.48 205.24 39.72 205.24 37.96V31.2L196.84 32.72L196.88 32.64ZM139.48 42.92V87.12L169.08 81.8V73.8L148.12 77.56V41.44L139.48 43V42.92ZM114.08 47.4L101.84 49.6C94.92 50.88 91.04 55.56 91.04 62.64V84.24C91.04 91.44 95.12 95.04 102.16 93.72L114.44 91.52C121.36 90.24 125.24 85.56 125.24 78.48V56.88C125.24 50.6 122.2 47.12 116.84 47.12C115.96 47.12 115.08 47.2 114.16 47.4H114.08ZM99.68 83.16V61.08C99.68 58.96 100.64 57.84 102.64 57.48L113.84 55.48C115.72 55.12 116.52 55.76 116.52 57.76V80C116.52 82.12 115.56 83.24 113.48 83.6L102.28 85.6C102.04 85.68 101.76 85.68 101.48 85.68C100.08 85.68 99.68 84.84 99.68 83.12V83.16ZM67.92 55.68V72.88L51.04 75.92V58.72L42.4 60.32V104.52L51.04 102.92V84L67.92 80.96V99.92L76.56 98.32V54.16L67.92 55.76V55.68ZM158.96 92.08L140.44 145.28L149.4 143.68L167.88 90.48L158.96 92.04V92.08ZM114.08 103.24L102.08 105.36C95.56 106.56 91.28 110.6 91.28 117.64V120.84C91.28 125.64 93.44 128.92 98.32 129.36L115 130.76C116.12 130.84 116.52 131.32 116.52 132.48V136.96C116.52 138.96 115.32 139.76 113.4 140.16L102.2 142.12C100.48 142.4 99.4 142.32 99.4 140.36V134.24L90.88 135.84V141.32C90.88 148.52 95.28 151.2 101.88 150L114.36 147.72C121 146.52 125.24 142.48 125.24 135.44V130.12C125.24 125.24 122.44 122.6 117.8 122.2L101.4 120.76C99.92 120.64 99.88 120.2 99.88 118.76V116.16C99.88 114.08 101.12 113.32 103 112.96L113.76 111.04C115.44 110.76 116.56 110.84 116.56 112.8V119.36L125.04 117.76V111.84C125.04 105.8 121.76 102.88 116.76 102.88C115.92 102.88 115 102.96 114.04 103.16L114.08 103.24ZM67.84 111.52V144.8C67.84 147 66.88 148.16 64.8 148.52L53.6 150.52C51.68 150.84 50.92 150.2 50.92 148.12V141L42.32 142.56V149.16C42.32 156.36 46.44 159.96 53.52 158.64L65.76 156.44C72.68 155.16 76.56 150.48 76.56 143.4V109.96L67.92 111.56H67.84V111.52ZM196.48 125.24V132.96L205.12 131.4V123.68L196.48 125.24ZM181.76 127.84V135.6L190.4 134V126.28L181.76 127.88V127.84ZM167.04 130.48V138.2L175.68 136.64V128.92L167.04 130.52V130.48Z" fill="#44403C"/>
</g>
<defs>
<clipPath id="clip0_1_21">
<rect width="248" height="192" fill="white"/>
</clipPath>
</defs>
</svg>
