<svg width="215" height="64" viewBox="0 0 215 64" fill="none" xmlns="http://www.w3.org/2000/svg">
<g clip-path="url(#clip0_2296_27435)">
<path d="M79.5986 21.3516H83.7079L89.7765 39.4497H89.8309L95.8994 21.3516H100.009V42.8671H97.3417V24.7689H97.2873L91.2459 42.8671H88.3886L82.3473 24.7689H82.2928V42.8671H79.6259V21.3516H79.5986Z" fill="black"/>
<path d="M117.207 34.9936C117.207 36.2785 117.044 37.4268 116.717 38.4657C116.391 39.5044 115.901 40.3793 115.302 41.0902C114.703 41.801 113.914 42.3751 113.016 42.7578C112.118 43.1406 111.111 43.3319 109.968 43.3319C108.825 43.3319 107.818 43.1406 106.921 42.7578C106.022 42.3751 105.26 41.8282 104.662 41.0902C104.063 40.352 103.573 39.5044 103.247 38.4657C102.92 37.4268 102.757 36.2785 102.757 34.9936C102.757 33.7087 102.92 32.5879 103.247 31.549C103.573 30.5373 104.063 29.6625 104.662 28.9245C105.26 28.1863 106.05 27.6395 106.921 27.2567C107.818 26.8741 108.825 26.6826 109.968 26.6826C111.111 26.6826 112.118 26.8741 113.016 27.2567C113.914 27.6395 114.676 28.1863 115.302 28.9245C115.928 29.6625 116.391 30.5101 116.717 31.549C117.044 32.5604 117.207 33.7087 117.207 34.9936ZM114.54 34.9936C114.54 34.1188 114.431 33.3259 114.241 32.5879C114.05 31.8497 113.751 31.2483 113.37 30.7014C112.989 30.1819 112.499 29.7719 111.928 29.4712C111.356 29.1705 110.703 29.0338 109.941 29.0338C109.179 29.0338 108.526 29.1705 107.982 29.4712C107.41 29.7719 106.948 30.1819 106.567 30.7014C106.186 31.2208 105.886 31.8497 105.696 32.5879C105.505 33.3259 105.396 34.1188 105.396 34.9936C105.396 35.8685 105.505 36.6886 105.696 37.4268C105.886 38.1648 106.186 38.7937 106.567 39.3131C106.948 39.8326 107.438 40.2426 107.982 40.5433C108.553 40.844 109.206 40.9808 109.941 40.9808C110.676 40.9808 111.356 40.844 111.928 40.5433C112.499 40.2426 112.962 39.8326 113.37 39.3131C113.751 38.7937 114.05 38.1648 114.241 37.4268C114.431 36.6886 114.54 35.8957 114.54 34.9936Z" fill="black"/>
<path d="M120.119 27.1748H122.786V39.1765H122.84L130.515 27.1748H133.59V42.8399H130.896V30.838H130.841L123.194 42.8399H120.119V27.1748ZM124.337 21.0782C124.473 21.707 124.718 22.199 125.126 22.5544C125.535 22.9098 126.106 23.1013 126.895 23.1013C127.685 23.1013 128.283 22.9372 128.664 22.5544C129.072 22.199 129.317 21.707 129.426 21.0508H131.903C131.903 21.6249 131.766 22.1718 131.522 22.6365C131.277 23.1013 130.95 23.5114 130.487 23.8393C130.052 24.1675 129.508 24.4409 128.909 24.6048C128.283 24.7963 127.603 24.8782 126.868 24.8782C126.133 24.8782 125.453 24.7963 124.827 24.6048C124.228 24.4409 123.684 24.1675 123.249 23.8393C122.813 23.5114 122.46 23.1013 122.215 22.6365C121.97 22.1718 121.834 21.6249 121.834 21.0235H124.31L124.337 21.0782Z" fill="black"/>
<path d="M156.993 32.0957C156.993 33.0252 156.911 33.9547 156.721 34.857C156.53 35.7591 156.258 36.6613 155.877 37.4815C155.496 38.3289 155.034 39.0944 154.462 39.8053C153.891 40.5161 153.21 41.1449 152.448 41.6916C151.659 42.2111 150.788 42.6484 149.808 42.9218C148.829 43.2225 147.74 43.3593 146.57 43.3593C145.4 43.3593 144.311 43.2225 143.332 42.9218C142.352 42.6211 141.481 42.2111 140.692 41.6916C139.93 41.1722 139.25 40.5433 138.678 39.8053C138.107 39.0944 137.617 38.3016 137.263 37.4815C136.882 36.6613 136.61 35.7591 136.42 34.857C136.229 33.9547 136.147 33.0252 136.147 32.0957C136.147 30.4281 136.392 28.897 136.855 27.5027C137.318 26.1085 137.998 24.9329 138.896 23.9215C139.794 22.9372 140.883 22.1444 142.162 21.5976C143.441 21.0508 144.937 20.7775 146.57 20.7775C148.203 20.7775 149.672 21.0508 150.979 21.5976C152.285 22.1444 153.373 22.9098 154.244 23.9215C155.115 24.9329 155.823 26.1085 156.285 27.5027C156.748 28.897 156.993 30.4281 156.993 32.0957ZM154.135 32.0957C154.135 30.8108 153.972 29.6352 153.618 28.5691C153.292 27.5027 152.775 26.5732 152.149 25.7805C151.496 25.015 150.707 24.3862 149.781 23.9761C148.829 23.5386 147.767 23.3199 146.57 23.3199C145.373 23.3199 144.284 23.5386 143.359 23.9761C142.407 24.4135 141.617 25.015 140.991 25.7805C140.338 26.546 139.849 27.4755 139.522 28.5691C139.195 29.6352 139.005 30.8382 139.005 32.0957C139.005 33.3533 139.168 34.5835 139.467 35.6771C139.767 36.7706 140.257 37.6728 140.883 38.4383C141.508 39.2037 142.298 39.8053 143.25 40.2426C144.203 40.6801 145.318 40.8715 146.597 40.8715C147.876 40.8715 148.992 40.6527 149.945 40.2426C150.897 39.8053 151.686 39.2312 152.312 38.4383C152.938 37.6454 153.401 36.7433 153.727 35.6771C154.054 34.6108 154.19 33.408 154.19 32.0957H154.135Z" fill="black"/>
<path d="M169.212 40.9534H169.156C168.885 41.4456 168.585 41.8557 168.286 42.1564C167.987 42.4571 167.66 42.7031 167.334 42.8671C167.007 43.0312 166.654 43.1678 166.273 43.2225C165.919 43.2772 165.538 43.3046 165.157 43.3046C164.395 43.3046 163.66 43.1131 162.953 42.7578C162.245 42.4024 161.592 41.8557 161.048 41.1447C160.476 40.434 160.041 39.5591 159.687 38.493C159.36 37.4268 159.17 36.2238 159.17 34.8568C159.17 34.1735 159.224 33.5172 159.306 32.8339C159.388 32.1504 159.551 31.5215 159.769 30.9201C159.986 30.3187 160.231 29.7446 160.558 29.2251C160.884 28.7057 161.265 28.2409 161.701 27.8581C162.136 27.4755 162.653 27.1748 163.225 26.956C163.796 26.7373 164.449 26.6279 165.157 26.6279C165.701 26.6279 166.164 26.71 166.599 26.8467C167.035 27.0107 167.416 27.202 167.715 27.4208C168.041 27.6668 168.314 27.9128 168.558 28.1862C168.804 28.4597 168.995 28.7057 169.185 28.9517H169.239V21.2422H171.905V28.9517H171.961C172.123 28.7057 172.342 28.4597 172.586 28.1862C172.831 27.9128 173.104 27.6668 173.429 27.4208C173.756 27.1748 174.137 26.9833 174.546 26.8467C174.981 26.6826 175.443 26.6279 175.987 26.6279C176.695 26.6279 177.349 26.7373 177.92 26.956C178.492 27.1748 179.009 27.4755 179.444 27.8581C179.879 28.2409 180.26 28.6783 180.587 29.2251C180.914 29.7446 181.158 30.3187 181.375 30.9201C181.566 31.5215 181.729 32.1504 181.839 32.8339C181.947 33.5172 181.975 34.1735 181.975 34.8568C181.975 36.2238 181.812 37.4541 181.458 38.493C181.104 39.5591 180.669 40.434 180.096 41.1447C179.525 41.8557 178.9 42.3751 178.192 42.7578C177.484 43.1131 176.722 43.3046 175.987 43.3046C175.606 43.3046 175.225 43.2772 174.872 43.2225C174.518 43.1678 174.164 43.0312 173.811 42.8671C173.484 42.7031 173.158 42.4571 172.831 42.1564C172.504 41.8557 172.232 41.4456 171.961 40.9534H171.905V49.0184H169.239V40.9534H169.212ZM169.212 33.6266C169.212 32.8886 169.13 32.2323 168.939 31.6583C168.749 31.0842 168.504 30.6194 168.205 30.2094C167.905 29.8265 167.524 29.5258 167.116 29.3071C166.708 29.1158 166.273 29.0064 165.837 29.0064C165.13 29.0064 164.504 29.1705 164.014 29.4712C163.497 29.7719 163.089 30.2094 162.762 30.7561C162.435 31.3028 162.218 31.9316 162.055 32.6424C161.891 33.3533 161.837 34.146 161.837 34.9662C161.837 35.4037 161.864 35.8685 161.918 36.3332C161.973 36.8252 162.055 37.29 162.163 37.7275C162.272 38.1923 162.435 38.6296 162.626 39.0397C162.817 39.4497 163.061 39.8051 163.361 40.1333C163.66 40.4614 163.987 40.68 164.395 40.8715C164.803 41.0628 165.239 41.1447 165.783 41.1447C166.898 41.1447 167.742 40.7346 168.341 39.9419C168.939 39.149 169.212 38.0282 169.212 36.552V33.5993V33.6266ZM175.279 41.1447C175.824 41.1447 176.287 41.0628 176.695 40.8715C177.103 40.68 177.457 40.434 177.757 40.1333C178.055 39.8326 178.301 39.4497 178.492 39.0397C178.682 38.6296 178.846 38.1923 178.953 37.7275C179.063 37.2627 179.144 36.798 179.2 36.3332C179.253 35.8685 179.28 35.4037 179.28 34.9662C179.28 34.146 179.199 33.3806 179.063 32.6424C178.9 31.9316 178.682 31.2755 178.355 30.7561C178.028 30.2094 177.62 29.7993 177.13 29.4712C176.641 29.143 176.014 29.0064 175.308 29.0064C174.872 29.0064 174.437 29.1158 174.029 29.3071C173.621 29.5258 173.267 29.7993 172.94 30.2094C172.64 30.592 172.369 31.0842 172.205 31.6583C172.015 32.2323 171.932 32.8886 171.932 33.6266V36.5792C171.932 38.0555 172.232 39.1765 172.804 39.9692C173.375 40.7621 174.219 41.1722 175.308 41.1722L175.279 41.1447Z" fill="black"/>
<path d="M184.832 27.1748H187.498V39.1765H187.554L195.227 27.1748H198.303V42.8399H195.608V30.8382H195.554L187.908 42.8399H184.832V27.1748Z" fill="black"/>
<path d="M214.387 37.3447C214.358 37.7275 214.277 38.1376 214.168 38.6023C214.06 39.0397 213.896 39.5044 213.679 39.9419C213.462 40.3793 213.189 40.8168 212.862 41.2268C212.536 41.6369 212.127 41.9923 211.638 42.3204C211.148 42.6484 210.603 42.8946 209.951 43.0859C209.297 43.2772 208.562 43.3593 207.72 43.3593C207.256 43.3593 206.794 43.3046 206.277 43.1953C205.76 43.0859 205.269 42.8946 204.807 42.6211C204.317 42.3477 203.882 42.0197 203.447 41.6097C203.011 41.1996 202.63 40.6801 202.303 40.0786C201.978 39.4772 201.705 38.739 201.514 37.9462C201.324 37.1261 201.216 36.1966 201.216 35.1302C201.216 33.8453 201.406 32.6698 201.758 31.6309C202.141 30.592 202.63 29.7172 203.228 28.9791C203.855 28.2684 204.563 27.6942 205.379 27.3114C206.194 26.9288 207.066 26.7373 207.964 26.7373C208.78 26.7373 209.514 26.8194 210.114 27.0107C210.74 27.1748 211.284 27.4208 211.746 27.7215C212.209 28.0222 212.617 28.3503 212.917 28.7331C213.242 29.1158 213.489 29.5258 213.706 29.9359C213.923 30.346 214.06 30.7835 214.168 31.2208C214.277 31.6583 214.331 32.0684 214.358 32.4785H211.855C211.719 31.4123 211.365 30.592 210.767 29.9906C210.168 29.3892 209.324 29.0885 208.264 29.0885C207.529 29.0885 206.875 29.2524 206.331 29.5533C205.786 29.854 205.325 30.264 204.971 30.8108C204.617 31.3576 204.344 32.0137 204.153 32.7792C203.963 33.5446 203.882 34.3922 203.882 35.2943C203.882 36.3332 203.992 37.208 204.182 37.9735C204.372 38.7117 204.644 39.3405 204.998 39.8053C205.352 40.2973 205.786 40.6527 206.304 40.8715C206.821 41.0902 207.42 41.2268 208.074 41.2268C208.535 41.2268 208.97 41.1449 209.407 40.9808C209.814 40.8168 210.195 40.5708 210.522 40.2426C210.849 39.9147 211.121 39.5044 211.365 39.0397C211.611 38.5751 211.775 38.0282 211.855 37.4268H214.358L214.387 37.3447Z" fill="black"/>
<path d="M54.4112 0H17.8223L31.6119 13.8773C31.9219 13.859 32.234 13.8498 32.5483 13.8498C35.6891 13.8484 38.7679 14.7286 41.4384 16.3913C44.1088 18.0541 46.2649 20.4334 47.6639 23.2616C47.9334 23.2438 48.2059 23.2342 48.4801 23.2342C50.7457 23.2347 52.966 23.8724 54.8902 25.0753C56.8144 26.2782 58.3657 27.9983 59.369 30.0413L63.6984 25.687V9.8262C63.6566 7.31566 62.6789 4.91246 60.9588 3.09262C59.2389 1.27279 56.902 0.169035 54.4112 0Z" fill="#00B4FF"/>
<path d="M59.3757 30.0414L41.7764 47.7473L57.2928 63.3534C59.1578 62.6448 60.7671 61.3876 61.9112 59.7456C63.0553 58.1036 63.6809 56.153 63.7066 54.1481V25.6807L59.3757 30.0414Z" fill="#FF6E6E"/>
<path d="M7.07108 41.9919C6.60209 40.8342 6.3619 39.5956 6.36396 38.3456C6.36396 33.1511 10.4254 28.9403 15.4347 28.9403C15.5517 28.9403 15.6671 28.9403 15.7826 28.9483C16.2222 24.9573 18.0551 21.2524 20.9553 18.4929C23.8555 15.7334 27.635 14.0979 31.6214 13.8777L17.8318 0.00845337H9.35761C6.83702 0.170038 4.47235 1.2914 2.74469 3.14437C1.01703 4.99735 0.0561738 7.44274 0.0576188 9.98298V49.0474L7.07108 41.9919Z" fill="#23D3FF"/>
<path d="M41.7618 47.7471H15.4317C14.0626 47.7485 12.712 47.4288 11.4872 46.8134C9.48203 45.7969 7.91176 44.0829 7.06814 41.9898L0.0546875 49.047V53.9996C0.0546875 56.6514 1.10208 59.1946 2.96644 61.0697C3.88957 61.9983 4.98551 62.7348 6.19164 63.2373C7.39778 63.7397 8.69048 63.9983 9.99605 63.9983H53.7651C54.9664 63.9977 56.1575 63.7792 57.2815 63.3533L41.7618 47.7471Z" fill="#00F5D0"/>
<path d="M63.6566 9.8262C63.615 7.31346 62.6356 4.90833 60.9129 3.08809C59.1901 1.26785 56.8498 0.16557 54.3567 0H9.29993C6.78022 0.163844 4.41688 1.28589 2.68967 3.13838C0.962479 4.99086 0.000848463 7.43497 0 9.97457V54.0012C0 56.6531 1.04738 59.1963 2.91175 61.0714C4.77611 62.9466 7.30473 64 9.94137 64H53.7153C54.9165 63.9995 56.1077 63.781 57.2316 63.3549H57.2429C59.1079 62.6465 60.7174 61.3893 61.8615 59.7472C63.0056 58.1053 63.6311 56.1546 63.6566 54.1496V26.0096V9.8262Z" fill="url(#paint0_radial_2296_27435)"/>
<path d="M59.416 30.0608C58.4127 28.0177 56.8613 26.2975 54.9371 25.0947C53.0129 23.8918 50.7926 23.254 48.527 23.2535C48.2528 23.2535 47.9818 23.2633 47.7125 23.281C46.313 20.4528 44.1566 18.0735 41.4859 16.4108C38.8152 14.7481 35.7362 13.8678 32.5952 13.8693C32.2745 13.8693 31.9698 13.8789 31.6588 13.8967C27.6724 14.1169 23.8929 15.7524 20.9927 18.5119C18.0925 21.2715 16.2596 24.9763 15.82 28.9674C15.7046 28.9674 15.5891 28.9593 15.4721 28.9593C10.4629 28.9593 6.40138 33.1701 6.40138 38.3646C6.39932 39.6146 6.63951 40.8532 7.1085 42.0109C7.95211 44.104 9.52237 45.8179 11.5276 46.8345C12.7524 47.4498 14.1029 47.7695 15.4721 47.7682H41.8166L59.4176 30.0624L59.416 30.0608Z" fill="white"/>
<path fill-rule="evenodd" clip-rule="evenodd" d="M53.9896 28.8367C55.8764 28.8091 57.7435 29.2261 59.4414 30.0543L41.834 47.7602V40.5142H41.85C41.9907 37.3706 43.331 34.4026 45.5921 32.2276C47.8532 30.0526 50.8609 28.838 53.9896 28.8367Z" fill="#FFD12F"/>
</g>
<defs>
<radialGradient id="paint0_radial_2296_27435" cx="0" cy="0" r="1" gradientUnits="userSpaceOnUse" gradientTransform="translate(31.8283 32.0008) scale(31.8219 32.0056)">
<stop stop-color="#261C38" stop-opacity="0.6"/>
<stop offset="0.28" stop-color="#261C38" stop-opacity="0.3"/>
<stop offset="0.86" stop-color="#302640" stop-opacity="0.05"/>
<stop offset="1" stop-color="#302640" stop-opacity="0"/>
</radialGradient>
<clipPath id="clip0_2296_27435">
<rect width="214.545" height="64" fill="white"/>
</clipPath>
</defs>
</svg>
