<svg width="215" height="64" viewBox="0 0 215 64" fill="none" xmlns="http://www.w3.org/2000/svg">
<g clip-path="url(#clip0_2332_27138)">
<path d="M79.5991 21.3516H83.7083L89.777 39.4497H89.8314L95.8999 21.3516H100.009V42.8671H97.3422V24.7689H97.2877L91.2464 42.8671H88.3891L82.3478 24.7689H82.2933V42.8671H79.6264V21.3516H79.5991Z" fill="white"/>
<path d="M117.208 34.9936C117.208 36.2785 117.045 37.4268 116.718 38.4657C116.392 39.5044 115.902 40.3793 115.303 41.0902C114.704 41.801 113.915 42.3751 113.017 42.7578C112.119 43.1406 111.112 43.3319 109.969 43.3319C108.826 43.3319 107.819 43.1406 106.921 42.7578C106.023 42.3751 105.261 41.8282 104.663 41.0902C104.064 40.352 103.574 39.5044 103.248 38.4657C102.921 37.4268 102.758 36.2785 102.758 34.9936C102.758 33.7087 102.921 32.5879 103.248 31.549C103.574 30.5373 104.064 29.6625 104.663 28.9245C105.261 28.1863 106.051 27.6395 106.921 27.2567C107.819 26.8741 108.826 26.6826 109.969 26.6826C111.112 26.6826 112.119 26.8741 113.017 27.2567C113.915 27.6395 114.677 28.1863 115.303 28.9245C115.929 29.6625 116.392 30.5101 116.718 31.549C117.045 32.5604 117.208 33.7087 117.208 34.9936ZM114.541 34.9936C114.541 34.1188 114.432 33.3259 114.242 32.5879C114.051 31.8497 113.752 31.2483 113.371 30.7014C112.99 30.1819 112.5 29.7719 111.929 29.4712C111.357 29.1705 110.704 29.0338 109.942 29.0338C109.18 29.0338 108.527 29.1705 107.983 29.4712C107.411 29.7719 106.949 30.1819 106.568 30.7014C106.187 31.2208 105.887 31.8497 105.697 32.5879C105.506 33.3259 105.397 34.1188 105.397 34.9936C105.397 35.8685 105.506 36.6886 105.697 37.4268C105.887 38.1648 106.187 38.7937 106.568 39.3131C106.949 39.8326 107.439 40.2426 107.983 40.5433C108.554 40.844 109.207 40.9808 109.942 40.9808C110.677 40.9808 111.357 40.844 111.929 40.5433C112.5 40.2426 112.963 39.8326 113.371 39.3131C113.752 38.7937 114.051 38.1648 114.242 37.4268C114.432 36.6886 114.541 35.8957 114.541 34.9936Z" fill="white"/>
<path d="M120.12 27.1748H122.787V39.1765H122.841L130.515 27.1748H133.59V42.8399H130.896V30.838H130.842L123.195 42.8399H120.12V27.1748ZM124.338 21.0782C124.474 21.707 124.719 22.199 125.127 22.5544C125.535 22.9098 126.107 23.1013 126.896 23.1013C127.685 23.1013 128.284 22.9372 128.665 22.5544C129.073 22.199 129.318 21.707 129.427 21.0508H131.903C131.903 21.6249 131.767 22.1718 131.522 22.6365C131.277 23.1013 130.951 23.5114 130.488 23.8393C130.053 24.1675 129.508 24.4409 128.91 24.6048C128.284 24.7963 127.603 24.8782 126.869 24.8782C126.134 24.8782 125.453 24.7963 124.827 24.6048C124.229 24.4409 123.685 24.1675 123.249 23.8393C122.814 23.5114 122.46 23.1013 122.215 22.6365C121.97 22.1718 121.834 21.6249 121.834 21.0235H124.311L124.338 21.0782Z" fill="white"/>
<path d="M156.994 32.0957C156.994 33.0252 156.912 33.9547 156.722 34.857C156.531 35.7591 156.259 36.6613 155.878 37.4815C155.497 38.3289 155.035 39.0944 154.463 39.8053C153.892 40.5161 153.211 41.1449 152.449 41.6916C151.66 42.2111 150.789 42.6484 149.809 42.9218C148.83 43.2225 147.741 43.3593 146.571 43.3593C145.401 43.3593 144.312 43.2225 143.333 42.9218C142.353 42.6211 141.482 42.2111 140.693 41.6916C139.931 41.1722 139.251 40.5433 138.679 39.8053C138.108 39.0944 137.618 38.3016 137.264 37.4815C136.883 36.6613 136.611 35.7591 136.421 34.857C136.23 33.9547 136.148 33.0252 136.148 32.0957C136.148 30.4281 136.393 28.897 136.856 27.5027C137.319 26.1085 137.999 24.9329 138.897 23.9215C139.795 22.9372 140.884 22.1444 142.163 21.5976C143.442 21.0508 144.938 20.7775 146.571 20.7775C148.204 20.7775 149.673 21.0508 150.98 21.5976C152.286 22.1444 153.374 22.9098 154.245 23.9215C155.116 24.9329 155.824 26.1085 156.286 27.5027C156.749 28.897 156.994 30.4281 156.994 32.0957ZM154.136 32.0957C154.136 30.8108 153.973 29.6352 153.619 28.5691C153.293 27.5027 152.776 26.5732 152.15 25.7805C151.497 25.015 150.708 24.3862 149.782 23.9761C148.83 23.5386 147.768 23.3199 146.571 23.3199C145.374 23.3199 144.285 23.5386 143.36 23.9761C142.408 24.4135 141.618 25.015 140.992 25.7805C140.339 26.546 139.849 27.4755 139.523 28.5691C139.196 29.6352 139.006 30.8382 139.006 32.0957C139.006 33.3533 139.169 34.5835 139.468 35.6771C139.768 36.7706 140.258 37.6728 140.884 38.4383C141.509 39.2037 142.299 39.8053 143.251 40.2426C144.204 40.6801 145.319 40.8715 146.598 40.8715C147.877 40.8715 148.993 40.6527 149.946 40.2426C150.898 39.8053 151.687 39.2312 152.313 38.4383C152.939 37.6454 153.402 36.7433 153.728 35.6771C154.055 34.6108 154.191 33.408 154.191 32.0957H154.136Z" fill="white"/>
<path d="M169.213 40.9534H169.157C168.886 41.4456 168.586 41.8557 168.287 42.1564C167.988 42.4571 167.661 42.7031 167.335 42.8671C167.008 43.0312 166.655 43.1678 166.273 43.2225C165.92 43.2772 165.539 43.3046 165.158 43.3046C164.396 43.3046 163.661 43.1131 162.954 42.7578C162.246 42.4024 161.593 41.8557 161.049 41.1447C160.477 40.434 160.042 39.5591 159.688 38.493C159.361 37.4268 159.171 36.2238 159.171 34.8568C159.171 34.1735 159.225 33.5172 159.307 32.8339C159.389 32.1504 159.552 31.5215 159.77 30.9201C159.987 30.3187 160.232 29.7446 160.559 29.2251C160.885 28.7057 161.266 28.2409 161.702 27.8581C162.137 27.4755 162.654 27.1748 163.226 26.956C163.797 26.7373 164.45 26.6279 165.158 26.6279C165.702 26.6279 166.165 26.71 166.6 26.8467C167.036 27.0107 167.416 27.202 167.716 27.4208C168.042 27.6668 168.315 27.9128 168.559 28.1862C168.805 28.4597 168.996 28.7057 169.186 28.9517H169.24V21.2422H171.906V28.9517H171.962C172.124 28.7057 172.343 28.4597 172.587 28.1862C172.832 27.9128 173.105 27.6668 173.43 27.4208C173.757 27.1748 174.138 26.9833 174.547 26.8467C174.982 26.6826 175.444 26.6279 175.988 26.6279C176.696 26.6279 177.35 26.7373 177.921 26.956C178.493 27.1748 179.01 27.4755 179.445 27.8581C179.88 28.2409 180.261 28.6783 180.588 29.2251C180.914 29.7446 181.159 30.3187 181.376 30.9201C181.567 31.5215 181.73 32.1504 181.84 32.8339C181.948 33.5172 181.976 34.1735 181.976 34.8568C181.976 36.2238 181.813 37.4541 181.459 38.493C181.105 39.5591 180.67 40.434 180.097 41.1447C179.526 41.8557 178.9 42.3751 178.193 42.7578C177.485 43.1131 176.723 43.3046 175.988 43.3046C175.607 43.3046 175.226 43.2772 174.872 43.2225C174.519 43.1678 174.165 43.0312 173.812 42.8671C173.485 42.7031 173.158 42.4571 172.832 42.1564C172.505 41.8557 172.233 41.4456 171.962 40.9534H171.906V49.0184H169.24V40.9534H169.213ZM169.213 33.6266C169.213 32.8886 169.13 32.2323 168.94 31.6583C168.75 31.0842 168.505 30.6194 168.206 30.2094C167.906 29.8265 167.525 29.5258 167.117 29.3071C166.709 29.1158 166.273 29.0064 165.838 29.0064C165.131 29.0064 164.505 29.1705 164.015 29.4712C163.498 29.7719 163.09 30.2094 162.763 30.7561C162.436 31.3028 162.219 31.9316 162.056 32.6424C161.892 33.3533 161.838 34.146 161.838 34.9662C161.838 35.4037 161.865 35.8685 161.919 36.3332C161.974 36.8252 162.056 37.29 162.164 37.7275C162.273 38.1923 162.436 38.6296 162.627 39.0397C162.818 39.4497 163.062 39.8051 163.362 40.1333C163.661 40.4614 163.988 40.68 164.396 40.8715C164.804 41.0628 165.24 41.1447 165.784 41.1447C166.899 41.1447 167.743 40.7346 168.342 39.9419C168.94 39.149 169.213 38.0282 169.213 36.552V33.5993V33.6266ZM175.28 41.1447C175.825 41.1447 176.288 41.0628 176.696 40.8715C177.104 40.68 177.458 40.434 177.758 40.1333C178.056 39.8326 178.302 39.4497 178.493 39.0397C178.683 38.6296 178.847 38.1923 178.954 37.7275C179.064 37.2627 179.145 36.798 179.2 36.3332C179.254 35.8685 179.281 35.4037 179.281 34.9662C179.281 34.146 179.2 33.3806 179.064 32.6424C178.9 31.9316 178.683 31.2755 178.356 30.7561C178.029 30.2094 177.621 29.7993 177.131 29.4712C176.642 29.143 176.015 29.0064 175.309 29.0064C174.872 29.0064 174.438 29.1158 174.03 29.3071C173.622 29.5258 173.268 29.7993 172.941 30.2094C172.641 30.592 172.37 31.0842 172.206 31.6583C172.016 32.2323 171.933 32.8886 171.933 33.6266V36.5792C171.933 38.0555 172.233 39.1765 172.805 39.9692C173.376 40.7621 174.22 41.1722 175.309 41.1722L175.28 41.1447Z" fill="white"/>
<path d="M184.833 27.1748H187.499V39.1765H187.555L195.228 27.1748H198.304V42.8399H195.609V30.8382H195.555L187.909 42.8399H184.833V27.1748Z" fill="white"/>
<path d="M214.387 37.3447C214.359 37.7275 214.278 38.1376 214.168 38.6023C214.06 39.0397 213.897 39.5044 213.679 39.9419C213.462 40.3793 213.189 40.8168 212.862 41.2268C212.537 41.6369 212.127 41.9923 211.639 42.3204C211.148 42.6484 210.604 42.8946 209.951 43.0859C209.298 43.2772 208.563 43.3593 207.72 43.3593C207.257 43.3593 206.795 43.3046 206.277 43.1953C205.76 43.0859 205.27 42.8946 204.808 42.6211C204.317 42.3477 203.883 42.0197 203.448 41.6097C203.011 41.1996 202.63 40.6801 202.303 40.0786C201.978 39.4772 201.705 38.739 201.515 37.9462C201.324 37.1261 201.216 36.1966 201.216 35.1302C201.216 33.8453 201.407 32.6698 201.759 31.6309C202.142 30.592 202.63 29.7172 203.229 28.9791C203.856 28.2684 204.563 27.6942 205.379 27.3114C206.195 26.9288 207.066 26.7373 207.964 26.7373C208.78 26.7373 209.515 26.8194 210.115 27.0107C210.74 27.1748 211.285 27.4208 211.746 27.7215C212.21 28.0222 212.618 28.3503 212.918 28.7331C213.243 29.1158 213.489 29.5258 213.706 29.9359C213.924 30.346 214.06 30.7835 214.168 31.2208C214.278 31.6583 214.332 32.0684 214.359 32.4785H211.856C211.719 31.4123 211.365 30.592 210.767 29.9906C210.169 29.3892 209.325 29.0885 208.264 29.0885C207.53 29.0885 206.876 29.2524 206.331 29.5533C205.787 29.854 205.325 30.264 204.971 30.8108C204.617 31.3576 204.344 32.0137 204.154 32.7792C203.963 33.5446 203.883 34.3922 203.883 35.2943C203.883 36.3332 203.992 37.208 204.183 37.9735C204.373 38.7117 204.644 39.3405 204.998 39.8053C205.352 40.2973 205.787 40.6527 206.304 40.8715C206.822 41.0902 207.42 41.2268 208.074 41.2268C208.536 41.2268 208.971 41.1449 209.407 40.9808C209.815 40.8168 210.196 40.5708 210.523 40.2426C210.85 39.9147 211.121 39.5044 211.365 39.0397C211.612 38.5751 211.775 38.0282 211.856 37.4268H214.359L214.387 37.3447Z" fill="white"/>
<path d="M54.4112 0H17.8223L31.6119 13.8773C31.9219 13.859 32.234 13.8498 32.5483 13.8498C35.6891 13.8484 38.7679 14.7286 41.4384 16.3913C44.1088 18.0541 46.2649 20.4334 47.6639 23.2616C47.9334 23.2438 48.2059 23.2342 48.4801 23.2342C50.7457 23.2347 52.966 23.8724 54.8902 25.0753C56.8144 26.2782 58.3657 27.9983 59.369 30.0413L63.6984 25.687V9.8262C63.6566 7.31566 62.6789 4.91246 60.9588 3.09262C59.2389 1.27279 56.902 0.169035 54.4112 0Z" fill="#00B4FF"/>
<path d="M59.3757 30.0414L41.7764 47.7473L57.2928 63.3534C59.1578 62.6448 60.7671 61.3876 61.9112 59.7456C63.0553 58.1036 63.6809 56.153 63.7066 54.1481V25.6807L59.3757 30.0414Z" fill="#FF6E6E"/>
<path d="M7.07157 41.9919C6.60258 40.8342 6.36239 39.5956 6.36445 38.3456C6.36445 33.1511 10.4259 28.9403 15.4351 28.9403C15.5521 28.9403 15.6676 28.9403 15.7831 28.9483C16.2226 24.9573 18.0555 21.2524 20.9558 18.4929C23.856 15.7334 27.6355 14.0979 31.6219 13.8777L17.8323 0.00845337H9.3581C6.83751 0.170038 4.47284 1.2914 2.74518 3.14437C1.01751 4.99735 0.0566621 7.44274 0.0581071 9.98298V49.0474L7.07157 41.9919Z" fill="#23D3FF"/>
<path d="M41.7618 47.7471H15.4317C14.0626 47.7485 12.712 47.4288 11.4872 46.8134C9.48203 45.7969 7.91176 44.0829 7.06814 41.9898L0.0546875 49.047V53.9996C0.0546875 56.6514 1.10208 59.1946 2.96644 61.0697C3.88957 61.9983 4.98551 62.7348 6.19164 63.2373C7.39778 63.7397 8.69048 63.9983 9.99605 63.9983H53.7651C54.9664 63.9977 56.1575 63.7792 57.2815 63.3533L41.7618 47.7471Z" fill="#00F5D0"/>
<path d="M63.6566 9.8262C63.615 7.31346 62.6356 4.90833 60.9129 3.08809C59.1901 1.26785 56.8498 0.16557 54.3567 0H9.29993C6.78022 0.163844 4.41688 1.28589 2.68967 3.13838C0.962479 4.99086 0.000848463 7.43497 0 9.97457V54.0012C0 56.6531 1.04738 59.1963 2.91175 61.0714C4.77611 62.9466 7.30473 64 9.94137 64H53.7153C54.9165 63.9995 56.1077 63.781 57.2316 63.3549H57.2429C59.1079 62.6465 60.7174 61.3893 61.8615 59.7472C63.0056 58.1053 63.6311 56.1546 63.6566 54.1496V26.0096V9.8262Z" fill="url(#paint0_radial_2332_27138)"/>
<path d="M59.4155 30.0608C58.4122 28.0177 56.8608 26.2975 54.9366 25.0947C53.0124 23.8918 50.7921 23.254 48.5265 23.2535C48.2523 23.2535 47.9813 23.2633 47.712 23.281C46.3125 20.4528 44.1561 18.0735 41.4854 16.4108C38.8147 14.7481 35.7357 13.8678 32.5947 13.8693C32.274 13.8693 31.9693 13.8789 31.6583 13.8967C27.6719 14.1169 23.8924 15.7524 20.9922 18.5119C18.092 21.2715 16.2591 24.9763 15.8195 28.9674C15.7041 28.9674 15.5886 28.9593 15.4716 28.9593C10.4624 28.9593 6.40089 33.1701 6.40089 38.3646C6.39883 39.6146 6.63902 40.8532 7.10801 42.0109C7.95162 44.104 9.52188 45.8179 11.5271 46.8345C12.7519 47.4498 14.1025 47.7695 15.4716 47.7682H41.8161L59.4171 30.0624L59.4155 30.0608Z" fill="white"/>
<path fill-rule="evenodd" clip-rule="evenodd" d="M53.9892 28.8367C55.8759 28.8091 57.743 29.2261 59.4409 30.0543L41.8335 47.7602V40.5142H41.8495C41.9902 37.3706 43.3305 34.4026 45.5916 32.2276C47.8527 30.0526 50.8604 28.838 53.9892 28.8367Z" fill="#FFD12F"/>
</g>
<defs>
<radialGradient id="paint0_radial_2332_27138" cx="0" cy="0" r="1" gradientUnits="userSpaceOnUse" gradientTransform="translate(31.8283 32.0008) scale(31.8219 32.0056)">
<stop stop-color="#261C38" stop-opacity="0.6"/>
<stop offset="0.28" stop-color="#261C38" stop-opacity="0.3"/>
<stop offset="0.86" stop-color="#302640" stop-opacity="0.05"/>
<stop offset="1" stop-color="#302640" stop-opacity="0"/>
</radialGradient>
<clipPath id="clip0_2332_27138">
<rect width="214.545" height="64" fill="white"/>
</clipPath>
</defs>
</svg>
